<svg xmlns="http://www.w3.org/2000/svg" width="122" height="145" viewBox="0 0 122 145" fill="none">
    <path d="M60.7522 15.1367C64.3879 15.1367 67.3601 12.212 67.3601 8.57372C67.3601 4.93546 64.3879 2.01074 60.7522 2.01074C57.1165 2.01074 54.1444 4.93546 54.1444 8.57372C54.1444 12.212 57.1165 15.1367 60.7522 15.1367Z" fill="#F6F7FB" stroke="#ACB9C9" stroke-width="3.21583"/>
    <path d="M60.9696 23.87L60.9696 15.2524" stroke="#ACB9C9" stroke-width="3.21583"/>
    <ellipse cx="61.202" cy="84.7346" rx="57.149" ry="56.6365" fill="#F6F7FB"/>
    <path d="M31.7372 114.352C26.5402 117.957 25.8905 127.872 26.2154 132.378C25.674 132.915 29.2686 135.469 47.9777 141.392C66.6869 147.314 87.6048 137.851 95.7251 132.378V129.159L94.4258 120.468L87.28 111.777L81.7582 108.558L72.6634 106.948C68.1161 106.626 57.2024 105.983 49.9266 105.983C40.8319 105.983 38.2334 109.845 31.7372 114.352Z" fill="#F6F7FB"/>
    <path d="M61.202 142.979C93.6388 142.979 119.959 116.916 119.959 84.7346C119.959 52.5535 93.6388 26.4902 61.202 26.4902C28.7651 26.4902 2.44506 52.5535 2.44506 84.7346C2.44506 116.916 28.7651 142.979 61.202 142.979Z" stroke="#ACB9C9" stroke-width="3.21583"/>
    <path d="M96.0509 132.378V132.378C96.0509 118.156 84.5214 106.626 70.299 106.626L52.2931 106.626C38.0707 106.626 26.5412 118.156 26.5412 132.378V132.378" stroke="#ACB9C9" stroke-width="3.21583"/>
    <ellipse cx="14.7193" cy="61.1456" rx="10.6663" ry="10.5707" fill="#F6F7FB"/>
    <ellipse cx="108.582" cy="61.1456" rx="10.6663" ry="10.5707" fill="#F6F7FB"/>
    <rect x="14.1981" y="22.2891" width="94.1954" height="77.8995" rx="38.5166" fill="#F6F7FB" stroke="#ACB9C9" stroke-width="3.21583"/>
    <rect x="25.2427" y="36.4524" width="72.1082" height="49.5724" rx="23.4173" fill="#F6F7FB" stroke="#ACB9C9" stroke-width="3.21583"/>
    <path d="M54.0344 63.9868C54.0344 63.9868 56.2871 67.6399 61.4068 67.6399C66.5264 67.6399 68.7791 63.9868 68.7791 63.9868" stroke="#ACB9C9" stroke-width="3.21583" stroke-linecap="round"/>
    <ellipse cx="44.4087" cy="57.6954" rx="4.7101" ry="4.66786" fill="#ACB9C9"/>
    <path d="M108.022 72.5886C114.222 72.5886 119.249 67.4115 119.249 61.0253C119.249 54.639 114.222 49.4619 108.022 49.4619" stroke="#ACB9C9" stroke-width="3.21583"/>
    <path d="M14.3823 72.5886C8.18144 72.5886 3.15462 67.4115 3.15462 61.0253C3.15462 54.639 8.18144 49.4619 14.3823 49.4619" stroke="#ACB9C9" stroke-width="3.21583"/>
    <ellipse cx="77.9937" cy="57.6954" rx="4.7101" ry="4.66786" fill="#ACB9C9"/>
  </svg>